<svg xmlns="http://www.w3.org/2000/svg" viewBox="0 0 800 800" width="800" height="800"><defs><radialGradient id="bg" cx="50%" cy="38%" r="75%"><stop offset="0" stop-color="#2b241b"/><stop offset="1" stop-color="#100d0a"/></radialGradient><linearGradient id="gold" x1="0" y1="0" x2="1" y2="1"><stop offset="0" stop-color="#e8c87f"/><stop offset=".5" stop-color="#c9a45c"/><stop offset="1" stop-color="#8a6d35"/></linearGradient><linearGradient id="glass" x1="0" x2="1"><stop offset="0" stop-color="#1b1712"/><stop offset=".25" stop-color="#3a3024"/><stop offset=".55" stop-color="#1f1a14"/><stop offset="1" stop-color="#0f0c09"/></linearGradient></defs><rect width="800" height="800" fill="url(#bg)"/><ellipse cx="400" cy="660" rx="230" ry="26" fill="#000" opacity=".55"/><g transform="rotate(-14 400 450)"><defs><pattern id="carey" width="60" height="60" patternUnits="userSpaceOnUse"><rect width="60" height="60" fill="#6b3f1d"/><circle cx="15" cy="20" r="12" fill="#2c170a" opacity=".7"/><circle cx="45" cy="45" r="9" fill="#a8692e" opacity=".7"/><circle cx="48" cy="12" r="6" fill="#2c170a" opacity=".6"/></pattern></defs><rect x="180" y="360" width="440" height="70" rx="16" fill="url(#carey)"/><rect x="190" y="420" width="7" height="120" rx="3" fill="#6b3f1d"/><rect x="202" y="420" width="7" height="120" rx="3" fill="#6b3f1d"/><rect x="214" y="420" width="7" height="120" rx="3" fill="#6b3f1d"/><rect x="226" y="420" width="7" height="120" rx="3" fill="#6b3f1d"/><rect x="238" y="420" width="7" height="120" rx="3" fill="#6b3f1d"/><rect x="250" y="420" width="7" height="120" rx="3" fill="#6b3f1d"/><rect x="262" y="420" width="7" height="120" rx="3" fill="#6b3f1d"/><rect x="274" y="420" width="7" height="120" rx="3" fill="#6b3f1d"/><rect x="286" y="420" width="7" height="120" rx="3" fill="#6b3f1d"/><rect x="298" y="420" width="7" height="120" rx="3" fill="#6b3f1d"/><rect x="310" y="420" width="7" height="120" rx="3" fill="#6b3f1d"/><rect x="322" y="420" width="7" height="120" rx="3" fill="#6b3f1d"/><rect x="334" y="420" width="7" height="90" rx="3" fill="#6b3f1d"/><rect x="346" y="420" width="7" height="90" rx="3" fill="#6b3f1d"/><rect x="358" y="420" width="7" height="90" rx="3" fill="#6b3f1d"/><rect x="370" y="420" width="7" height="90" rx="3" fill="#6b3f1d"/><rect x="382" y="420" width="7" height="90" rx="3" fill="#6b3f1d"/><rect x="394" y="420" width="7" height="90" rx="3" fill="#6b3f1d"/><rect x="406" y="420" width="7" height="90" rx="3" fill="#6b3f1d"/><rect x="418" y="420" width="7" height="90" rx="3" fill="#6b3f1d"/><rect x="430" y="420" width="7" height="90" rx="3" fill="#6b3f1d"/><rect x="442" y="420" width="7" height="90" rx="3" fill="#6b3f1d"/><rect x="454" y="420" width="7" height="90" rx="3" fill="#6b3f1d"/><rect x="466" y="420" width="7" height="90" rx="3" fill="#6b3f1d"/><rect x="478" y="420" width="7" height="90" rx="3" fill="#6b3f1d"/><rect x="490" y="420" width="7" height="90" rx="3" fill="#6b3f1d"/><rect x="502" y="420" width="7" height="90" rx="3" fill="#6b3f1d"/><rect x="514" y="420" width="7" height="90" rx="3" fill="#6b3f1d"/><rect x="526" y="420" width="7" height="90" rx="3" fill="#6b3f1d"/><rect x="538" y="420" width="7" height="90" rx="3" fill="#6b3f1d"/><rect x="550" y="420" width="7" height="90" rx="3" fill="#6b3f1d"/><rect x="562" y="420" width="7" height="90" rx="3" fill="#6b3f1d"/><rect x="574" y="420" width="7" height="90" rx="3" fill="#6b3f1d"/><rect x="586" y="420" width="7" height="90" rx="3" fill="#6b3f1d"/><rect x="598" y="420" width="7" height="90" rx="3" fill="#6b3f1d"/><text x="560" y="405" text-anchor="middle" font-family="Georgia,serif" font-size="24" font-weight="700" fill="#e0bd72">JACK</text></g></svg>
