<svg xmlns="http://www.w3.org/2000/svg" viewBox="0 0 800 800" width="800" height="800"><defs><radialGradient id="bg" cx="50%" cy="38%" r="75%"><stop offset="0" stop-color="#2b241b"/><stop offset="1" stop-color="#100d0a"/></radialGradient><linearGradient id="gold" x1="0" y1="0" x2="1" y2="1"><stop offset="0" stop-color="#e8c87f"/><stop offset=".5" stop-color="#c9a45c"/><stop offset="1" stop-color="#8a6d35"/></linearGradient><linearGradient id="glass" x1="0" x2="1"><stop offset="0" stop-color="#1b1712"/><stop offset=".25" stop-color="#3a3024"/><stop offset=".55" stop-color="#1f1a14"/><stop offset="1" stop-color="#0f0c09"/></linearGradient></defs><rect width="800" height="800" fill="url(#bg)"/><ellipse cx="400" cy="660" rx="230" ry="26" fill="#000" opacity=".55"/><rect x="375" y="130" width="50" height="60" rx="6" fill="#15110d"/><rect x="345" y="180" width="110" height="70" rx="10" fill="url(#gold)"/><path d="M290 300 Q290 250 340 250 H460 Q510 250 510 300 V620 Q510 655 475 655 H325 Q290 655 290 620 Z" fill="url(#glass)" stroke="#3a3226" stroke-width="3"/><path d="M312 300 V610" stroke="#fff" stroke-opacity=".12" stroke-width="14" stroke-linecap="round"/><rect x="320" y="380" width="160" height="190" rx="6" fill="url(#gold)"/><text x="400" y="455" text-anchor="middle" font-family="Georgia,serif" font-size="50" font-weight="700" fill="#17130c">JACK</text><text x="400" y="486" text-anchor="middle" font-family="Arial Narrow,Arial,sans-serif" font-size="16" letter-spacing="4" fill="#17130c">SHAMPOO</text><text x="400" y="530" text-anchor="middle" font-family="Arial Narrow,Arial,sans-serif" font-size="14" letter-spacing="3" fill="#17130c">MENTA · 250 ML</text></svg>
